<svg xmlns="http://www.w3.org/2000/svg" width="24" height="24" viewBox="0 0 24 24"><title>NI_settings</title><path fill="#FFF" d="M9.84,1,5.78,2.68,6.72,5A8.7,8.7,0,0,0,5,6.7l-2.29-1L1,9.8l2.29,1a8.84,8.84,0,0,0,0,2.46L1,14.16l1.67,4.07L5,17.28A8.84,8.84,0,0,0,6.7,19l-1,2.29L9.81,23l1-2.29A8.58,8.58,0,0,0,12,20.8a8.69,8.69,0,0,0,1.22-.09L14.16,23l4.07-1.67L17.28,19A8.85,8.85,0,0,0,19,17.3l2.28,1L23,14.19l-2.29-1a8.67,8.67,0,0,0,0-2.46L23,9.84,21.32,5.78,19,6.72A8.69,8.69,0,0,0,17.3,5l1-2.29L14.2,1l-1,2.29A8.64,8.64,0,0,0,12,3.2a8.81,8.81,0,0,0-1.21.09ZM12,17.5a5.5,5.5,0,1,1,5.08-3.39A5.47,5.47,0,0,1,12,17.5m0-7.7a2.2,2.2,0,1,0,.84.17A2.2,2.2,0,0,0,12,9.8"/></svg>